<svg width="107" height="18" viewBox="0 0 107 18" fill="none" xmlns="http://www.w3.org/2000/svg">
<rect width="107" height="18" fill="#E5E5E5"/>
<g id="hover-tarefa" clip-path="url(#clip0_1892_2)">
<rect width="678" height="109" transform="translate(-547 -46)" fill="#F7F7F7"/>
<g id="Group 3160">
<rect id="Rectangle 222" x="-546.5" y="-45.5" width="677" height="108" stroke="#E5E5E5"/>
<g id="Group 3152">
<path id="Vector" d="M57.1111 1V4.2M50.8889 1V4.2M47 7.4H61M48.5556 2.6H59.4444C60.3036 2.6 61 3.31634 61 4.2V15.4C61 16.2837 60.3036 17 59.4444 17H48.5556C47.6964 17 47 16.2837 47 15.4V4.2C47 3.31634 47.6964 2.6 48.5556 2.6Z" stroke="#81858E" stroke-width="1.3" stroke-linecap="round" stroke-linejoin="round"/>
<path id="Vector_2" d="M13.1038 1.66848C13.3158 1.45654 13.5674 1.28843 13.8443 1.17373C14.1212 1.05903 14.418 1 14.7177 1C15.0174 1 15.3142 1.05903 15.5911 1.17373C15.868 1.28843 16.1196 1.45654 16.3315 1.66848C16.5435 1.88041 16.7116 2.13201 16.8263 2.40891C16.941 2.68582 17 2.9826 17 3.28232C17 3.58204 16.941 3.87882 16.8263 4.15573C16.7116 4.43263 16.5435 4.68423 16.3315 4.89617L5.43807 15.7896L1 17L2.21038 12.5619L13.1038 1.66848Z" stroke="#81858E" stroke-width="1.3" stroke-linecap="round" stroke-linejoin="round"/>
<path id="Vector_3" d="M91 4.2H92.6667M92.6667 4.2H106M92.6667 4.2V15.4C92.6667 15.8243 92.8423 16.2313 93.1548 16.5314C93.4674 16.8314 93.8913 17 94.3333 17H102.667C103.109 17 103.533 16.8314 103.845 16.5314C104.158 16.2313 104.333 15.8243 104.333 15.4V4.2M95.1667 4.2V2.6C95.1667 2.17565 95.3423 1.76869 95.6548 1.46863C95.9674 1.16857 96.3913 1 96.8333 1H100.167C100.609 1 101.033 1.16857 101.345 1.46863C101.658 1.76869 101.833 2.17565 101.833 2.6V4.2M96.8333 8.2V13M100.167 8.2V13" stroke="#81858E" stroke-width="1.3" stroke-linecap="round" stroke-linejoin="round"/>
</g>
</g>
</g>
<defs>
<clipPath id="clip0_1892_2">
<rect width="678" height="109" fill="white" transform="translate(-547 -46)"/>
</clipPath>
</defs>
</svg>
