<svg width="22" height="22" viewBox="0 0 22 22" fill="none" xmlns="http://www.w3.org/2000/svg">
<rect width="22" height="22" fill="#E5E5E5"/>
<g id="cadastro" clip-path="url(#clip0_1892_2)">
<rect width="1280" height="764" transform="translate(-1090 -24)" fill="white"/>
<g id="Group 3172">
<rect id="Rectangle 219" x="-1090" y="-24" width="1280" height="70" fill="black"/>
<path id="Vector" d="M8.09 8C8.3251 7.33167 8.78915 6.76811 9.39995 6.40913C10.0108 6.05016 10.7289 5.91894 11.4272 6.03871C12.1255 6.15849 12.7588 6.52152 13.2151 7.06353C13.6713 7.60553 13.9211 8.29152 13.92 9C13.92 11 10.92 12 10.92 12M11 16H11.01M21 11C21 16.5228 16.5228 21 11 21C5.47715 21 1 16.5228 1 11C1 5.47715 5.47715 1 11 1C16.5228 1 21 5.47715 21 11Z" stroke="white" stroke-width="2" stroke-linecap="round" stroke-linejoin="round"/>
</g>
</g>
<defs>
<clipPath id="clip0_1892_2">
<rect width="1280" height="764" fill="white" transform="translate(-1090 -24)"/>
</clipPath>
</defs>
</svg>
