<svg width="18" height="4" viewBox="0 0 18 4" fill="none" xmlns="http://www.w3.org/2000/svg">
<rect width="18" height="4" fill="#E5E5E5"/>
<g clip-path="url(#clip0_1892_2)" filter="url(#filter0_d_1892_2)">
<rect width="819" height="613" transform="translate(-725 -30)" fill="white"/>
<path d="M9 3C9.55228 3 10 2.55228 10 2C10 1.44772 9.55228 1 9 1C8.44772 1 8 1.44772 8 2C8 2.55228 8.44772 3 9 3Z" stroke="#81858E" stroke-width="2" stroke-linecap="round" stroke-linejoin="round"/>
<path d="M16 3C16.5523 3 17 2.55228 17 2C17 1.44772 16.5523 1 16 1C15.4477 1 15 1.44772 15 2C15 2.55228 15.4477 3 16 3Z" stroke="#81858E" stroke-width="2" stroke-linecap="round" stroke-linejoin="round"/>
<path d="M2 3C2.55228 3 3 2.55228 3 2C3 1.44772 2.55228 1 2 1C1.44772 1 1 1.44772 1 2C1 2.55228 1.44772 3 2 3Z" stroke="#81858E" stroke-width="2" stroke-linecap="round" stroke-linejoin="round"/>
</g>
<defs>
<filter id="filter0_d_1892_2" x="-733" y="-36" width="839" height="633" filterUnits="userSpaceOnUse" color-interpolation-filters="sRGB">
<feFlood flood-opacity="0" result="BackgroundImageFix"/>
<feColorMatrix in="SourceAlpha" type="matrix" values="0 0 0 0 0 0 0 0 0 0 0 0 0 0 0 0 0 0 127 0" result="hardAlpha"/>
<feOffset dx="2" dy="4"/>
<feGaussianBlur stdDeviation="5"/>
<feComposite in2="hardAlpha" operator="out"/>
<feColorMatrix type="matrix" values="0 0 0 0 0 0 0 0 0 0 0 0 0 0 0 0 0 0 0.05 0"/>
<feBlend mode="normal" in2="BackgroundImageFix" result="effect1_dropShadow_1892_2"/>
<feBlend mode="normal" in="SourceGraphic" in2="effect1_dropShadow_1892_2" result="shape"/>
</filter>
<clipPath id="clip0_1892_2">
<rect width="819" height="613" fill="white" transform="translate(-725 -30)"/>
</clipPath>
</defs>
</svg>
